<svg width="80" height="80" viewBox="0 0 80 80" fill="none" xmlns="http://www.w3.org/2000/svg">
<g clip-path="url(#clip0_233_115)">
<path d="M73.3333 16.6667H56.6667V13.3332C56.6667 9.6565 53.6769 6.6665 50 6.6665H30C26.3233 6.6665 23.3333 9.65635 23.3333 13.3332V16.6665H6.66672C2.98984 16.6667 0 19.6565 0 23.3332V33.3332C0 37.0101 2.98984 39.9999 6.66672 39.9999H33.3334V38.3332C33.3334 37.412 34.0789 36.6665 35.0002 36.6665H45.0002C45.9214 36.6665 46.6669 37.412 46.6669 38.3332V39.9999H73.3336C77.0102 39.9999 80 37.0101 80 33.3332V23.3332C80 19.6565 77.0102 16.6667 73.3333 16.6667ZM50 16.6667H30V13.3332H50V16.6667Z" fill="#002F70"/>
<path d="M79.0755 41.7983C78.5075 41.5168 77.8288 41.5819 77.3273 41.9627C76.1425 42.8596 74.7622 43.3332 73.3331 43.3332H46.6667V48.3332C46.6667 49.2544 45.9212 49.9999 45 49.9999H35C34.0788 49.9999 33.3333 49.2544 33.3333 48.3332V43.3332H6.66672C5.23766 43.3332 3.8575 42.8596 2.6725 41.9627C2.16953 41.5786 1.4925 41.5135 0.924375 41.7983C0.358125 42.08 0 42.6577 0 43.291V66.6666C0 70.3433 2.98984 73.3333 6.66672 73.3333H73.3334C77.0102 73.3333 80.0002 70.3435 80.0002 66.6666V43.291C80 42.6577 79.6419 42.08 79.0755 41.7983Z" fill="#002F70"/>
</g>
<defs>
<clipPath id="clip0_233_115">
<rect width="80" height="80" fill="white"/>
</clipPath>
</defs>
</svg>
