<svg width="80" height="80" viewBox="0 0 80 80" fill="none" xmlns="http://www.w3.org/2000/svg">
<path fill-rule="evenodd" clip-rule="evenodd" d="M3.67734 71.8398H76.3227C76.9711 71.8398 77.5 72.3688 77.5 73.0172V75.7758C77.5 76.4242 76.9711 76.9531 76.3227 76.9531H3.67734C3.02891 76.9531 2.5 76.4242 2.5 75.7758V73.0172C2.5 72.3688 3.02891 71.8398 3.67734 71.8398ZM71.5033 22.5962L47.6489 29.7769C47.4478 29.8373 47.3153 30.0156 47.3153 30.2256V69.6523H72.1072V23.0452C72.107 22.7294 71.8056 22.5053 71.5033 22.5962ZM18.1484 10.3253H7.89297V69.6523H18.1484V10.3253ZM44.5239 22.5962L20.6695 29.7769C20.4684 29.8373 20.3359 30.0156 20.3359 30.2256V69.6523H45.1278V23.0452C45.1277 22.7294 44.8263 22.5053 44.5239 22.5962ZM35.7383 36.0773H40.7414C41.0008 36.0773 41.2123 36.2889 41.2123 36.5483V41.5514C41.2123 41.8108 41.0008 42.0223 40.7414 42.0223H35.7383C35.4789 42.0223 35.2673 41.8108 35.2673 41.5514V36.5483C35.2673 36.2887 35.4789 36.0773 35.7383 36.0773ZM35.7383 53.2261H40.7414C41.0008 53.2261 41.2123 53.4377 41.2123 53.697V58.7003C41.2123 58.9597 41.0008 59.1713 40.7414 59.1713H35.7383C35.4789 59.1713 35.2673 58.9597 35.2673 58.7003V53.697C35.2673 53.4377 35.4789 53.2261 35.7383 53.2261ZM30.1962 36.5983V41.6016C30.1962 41.8609 29.9847 42.0725 29.7253 42.0725H24.7222C24.4628 42.0725 24.2512 41.8609 24.2512 41.6016V36.5983C24.2512 36.3389 24.4628 36.1273 24.7222 36.1273H29.7253C29.9847 36.1273 30.1962 36.3387 30.1962 36.5983ZM24.722 53.2761H29.7252C29.9845 53.2761 30.1961 53.4877 30.1961 53.747V58.7502C30.1961 59.0095 29.9845 59.2211 29.7252 59.2211H24.722C24.4627 59.2211 24.2511 59.0095 24.2511 58.7502V53.747C24.2511 53.4877 24.4627 53.2761 24.722 53.2761ZM62.7177 36.0773H67.7209C67.9803 36.0773 68.1919 36.2889 68.1919 36.5483V41.5514C68.1919 41.8108 67.9803 42.0223 67.7209 42.0223H62.7177C62.4583 42.0223 62.2467 41.8108 62.2467 41.5514V36.5483C62.2467 36.2887 62.4583 36.0773 62.7177 36.0773ZM62.7177 53.2261H67.7209C67.9803 53.2261 68.1919 53.4377 68.1919 53.697V58.7003C68.1919 58.9597 67.9803 59.1713 67.7209 59.1713H62.7177C62.4583 59.1713 62.2467 58.9597 62.2467 58.7003V53.697C62.2467 53.4377 62.4583 53.2261 62.7177 53.2261ZM51.7014 53.2761H56.7045C56.9639 53.2761 57.1755 53.4877 57.1755 53.747V58.7502C57.1755 59.0095 56.9639 59.2211 56.7045 59.2211H51.7014C51.442 59.2211 51.2305 59.0095 51.2305 58.7502V53.747C51.2305 53.4877 51.442 53.2761 51.7014 53.2761ZM51.7014 36.1273H56.7045C56.9639 36.1273 57.1755 36.3389 57.1755 36.5983V41.6016C57.1755 41.8609 56.9639 42.0725 56.7045 42.0725H51.7014C51.442 42.0725 51.2305 41.8609 51.2305 41.6016V36.5983C51.2305 36.3387 51.442 36.1273 51.7014 36.1273ZM18.1484 8.13797V3.13047C18.1484 3.08578 18.1094 3.04688 18.0648 3.04688H7.97656C7.93187 3.04688 7.89297 3.08578 7.89297 3.13047V8.13781L18.1484 8.13797Z" fill="#002F70"/>
</svg>
