<svg width="80" height="80" viewBox="0 0 80 80" fill="none" xmlns="http://www.w3.org/2000/svg">
<g clip-path="url(#clip0_233_110)">
<path d="M56.4706 32.3809V40.6163H51.7647V32.3809H44.7059C43.087 32.3809 41.9517 30.7841 42.4836 29.255L51.8953 2.19625C52.628 0.0896923 55.6073 0.0896923 56.34 2.19625L65.7517 29.255C66.2836 30.7841 65.1483 32.3809 63.5294 32.3809H56.4706ZM23.5294 28.6163C18.1594 27.5261 14.1177 22.7784 14.1177 17.0869C14.1177 10.5894 19.3848 5.32219 25.8823 5.32219C32.3798 5.32219 37.647 10.5894 37.647 17.0869C37.647 22.7784 33.6053 27.5263 28.2353 28.6163V40.6163H23.5294V28.6163ZM18.5084 44.1456H25.4437L16.9422 73.4286C12.3917 70.7855 8.53766 67.3781 5.66078 63.4258L18.4283 44.2744C18.4566 44.232 18.4833 44.1891 18.5084 44.1456ZM12.8584 44.1456L2.96313 58.9884C1.05391 55.1442 0 50.9292 0 46.4986C0 45.1991 1.05344 44.1456 2.35297 44.1456H12.8584ZM30.3439 44.1456H37.6472V79.3836C31.742 79.1016 26.1702 77.7645 21.2141 75.5933L30.3439 44.1456ZM61.4916 44.1456C61.5167 44.1891 61.5434 44.232 61.5716 44.2744L74.3391 63.4258C71.4622 67.3781 67.6083 70.7855 63.0577 73.4286L54.5561 44.1456H61.4916ZM67.1416 44.1456H77.647C78.9466 44.1456 80 45.1991 80 46.4986C80 50.9292 78.9461 55.1442 77.0369 58.9886L67.1416 44.1456ZM49.6561 44.1456L58.7861 75.5933C53.83 77.7645 48.258 79.1016 42.353 79.3836V44.1456H49.6561Z" fill="#002F70"/>
</g>
<defs>
<clipPath id="clip0_233_110">
<rect width="80" height="80" fill="white"/>
</clipPath>
</defs>
</svg>
