<svg width="80" height="80" viewBox="0 0 80 80" fill="none" xmlns="http://www.w3.org/2000/svg">
<path d="M12.0831 23.7251V25.5501L5.19141 32.4418V23.7251H12.0831Z" fill="#002F70"/>
<path d="M39.7909 43.0417V62.65H29.8742V41.6667C29.8742 41.386 29.7627 41.1168 29.5642 40.9183C29.3658 40.7198 29.0966 40.6083 28.8159 40.6083H16.5659C16.2852 40.6083 16.016 40.7198 15.8175 40.9183C15.6191 41.1168 15.5076 41.386 15.5076 41.6667V62.65H5.19922V43L22.6992 25.5L34.7159 37.5583L34.1742 38.0917C33.6775 38.5926 33.3989 39.2695 33.3989 39.975C33.3989 40.6805 33.6775 41.3574 34.1742 41.8583L35.6909 43.3333C36.1908 43.832 36.8681 44.1121 37.5742 44.1121C38.2803 44.1121 38.9576 43.832 39.4576 43.3333L39.7909 43.0417Z" fill="#002F70"/>
<path d="M17.1758 42.2666H28.2091V62.6499H17.1758V42.2666Z" fill="#002F70"/>
<path d="M22.7657 17.3751L38.8324 33.4417L35.8991 36.3751L22.6907 23.1667L3.64075 42.1917C3.54856 42.2847 3.43887 42.3585 3.31801 42.4088C3.19715 42.4592 3.06751 42.4851 2.93658 42.4851C2.80565 42.4851 2.67601 42.4592 2.55515 42.4088C2.43429 42.3585 2.3246 42.2847 2.23241 42.1917L0.715747 40.6751C0.530002 40.4878 0.425781 40.2347 0.425781 39.9709C0.425781 39.7071 0.530002 39.454 0.715747 39.2667C24.1074 15.9251 22.6324 17.2417 22.7657 17.3751Z" fill="#002F70"/>
<path d="M13.7005 22.0583H3.57552C3.35451 22.0583 3.14255 21.9705 2.98627 21.8142C2.82998 21.6579 2.74219 21.4459 2.74219 21.2249C2.74219 21.0039 2.82998 20.792 2.98627 20.6357C3.14255 20.4794 3.35451 20.3916 3.57552 20.3916H13.7005C13.9215 20.3916 14.1335 20.4794 14.2898 20.6357C14.4461 20.792 14.5339 21.0039 14.5339 21.2249C14.5339 21.4459 14.4461 21.6579 14.2898 21.8142C14.1335 21.9705 13.9215 22.0583 13.7005 22.0583Z" fill="#002F70"/>
<path d="M19.2513 52.7671C19.0303 52.7671 18.8183 52.6793 18.662 52.523C18.5058 52.3667 18.418 52.1547 18.418 51.9337V51.3587C18.418 51.1377 18.5058 50.9257 18.662 50.7695C18.8183 50.6132 19.0303 50.5254 19.2513 50.5254C19.4723 50.5254 19.6843 50.6132 19.8406 50.7695C19.9968 50.9257 20.0846 51.1377 20.0846 51.3587V51.9337C20.0846 52.1547 19.9968 52.3667 19.8406 52.523C19.6843 52.6793 19.4723 52.7671 19.2513 52.7671Z" fill="#002F70"/>
<path d="M76.0898 57.4834H79.9982V62.6584H76.0898V57.4834Z" fill="#002F70"/>
<path d="M0 57.4834H3.53333V62.6584H0V57.4834Z" fill="#002F70"/>
<path d="M46.7154 23.7251V25.5501L39.832 32.4334V23.7251H46.7154Z" fill="#002F70"/>
<path d="M74.4237 42.617V62.617H64.507V41.667C64.507 41.3863 64.3955 41.1171 64.1971 40.9186C63.9986 40.7202 63.7294 40.6087 63.4487 40.6087H51.207C50.9263 40.6087 50.6572 40.7202 50.4587 40.9186C50.2602 41.1171 50.1487 41.3863 50.1487 41.667V62.6503H41.457V41.3753L57.2904 25.542C75.132 43.3337 72.7487 40.9503 74.4237 42.617Z" fill="#002F70"/>
<path d="M51.8164 42.2667H62.8497V62.6501H51.8164V42.2667Z" fill="#002F70"/>
<path d="M79.2893 40.6747L77.7809 42.1914C77.688 42.2846 77.5776 42.3586 77.4561 42.4091C77.3345 42.4595 77.2042 42.4855 77.0726 42.4855C76.941 42.4855 76.8106 42.4595 76.6891 42.4091C76.5675 42.3586 76.4572 42.2846 76.3643 42.1914L57.3226 23.1664L38.2809 42.1914C38.1887 42.2844 38.079 42.3582 37.9582 42.4085C37.8373 42.4589 37.7077 42.4848 37.5768 42.4848C37.4458 42.4848 37.3162 42.4589 37.1953 42.4085C37.0745 42.3582 36.9648 42.2844 36.8726 42.1914L35.3559 40.6747C35.2629 40.5825 35.1891 40.4729 35.1388 40.352C35.0884 40.2311 35.0625 40.1015 35.0625 39.9706C35.0625 39.8396 35.0884 39.71 35.1388 39.5891C35.1891 39.4683 35.2629 39.3586 35.3559 39.2664C58.8059 15.8331 57.2809 17.2581 57.3976 17.3747L79.2893 39.2664C79.3822 39.3586 79.456 39.4683 79.5064 39.5891C79.5567 39.71 79.5827 39.8396 79.5827 39.9706C79.5827 40.1015 79.5567 40.2311 79.5064 40.352C79.456 40.4729 79.3822 40.5825 79.2893 40.6747Z" fill="#002F70"/>
<path d="M48.3328 22.0583H38.2161C37.9951 22.0583 37.7832 21.9705 37.6269 21.8142C37.4706 21.6579 37.3828 21.4459 37.3828 21.2249C37.3828 21.0039 37.4706 20.792 37.6269 20.6357C37.7832 20.4794 37.9951 20.3916 38.2161 20.3916H48.3328C48.5538 20.3916 48.7658 20.4794 48.9221 20.6357C49.0783 20.792 49.1661 21.0039 49.1661 21.2249C49.1661 21.4459 49.0783 21.6579 48.9221 21.8142C48.7658 21.9705 48.5538 22.0583 48.3328 22.0583Z" fill="#002F70"/>
<path d="M53.8919 52.7668C53.6709 52.7668 53.459 52.679 53.3027 52.5227C53.1464 52.3665 53.0586 52.1545 53.0586 51.9335V51.3585C53.0586 51.1375 53.1464 50.9255 53.3027 50.7692C53.459 50.6129 53.6709 50.5251 53.8919 50.5251C54.1129 50.5251 54.3249 50.6129 54.4812 50.7692C54.6375 50.9255 54.7253 51.1375 54.7253 51.3585V51.9335C54.7253 52.1545 54.6375 52.3665 54.4812 52.5227C54.3249 52.679 54.1129 52.7668 53.8919 52.7668Z" fill="#002F70"/>
</svg>
